<svg width="92" height="92" viewBox="0 0 92 92" fill="none" xmlns="http://www.w3.org/2000/svg">
<path d="M78.3143 1.34461C77.8074 1.04681 77.2031 0.961953 76.6337 1.1086C76.0644 1.25525 75.5763 1.62147 75.2763 2.12712L59.3876 29.0437C59.2335 29.3077 59.0232 29.546 58.7397 29.6601C58.3686 29.8095 58.003 29.9713 57.6436 30.1453C55.7499 31.0622 53.3288 30.634 52.0065 28.9975C46.9549 22.7455 39.2813 18.948 31.0061 18.948C16.6876 18.948 4.94152 30.1473 4.05332 44.2452C3.9963 45.1501 3.26574 45.8858 2.35896 45.8858C1.36907 45.8858 0.603352 46.7536 0.726672 47.7358L0.807792 48.3819C2.49528 61.8051 10.281 73.6566 21.6257 80.6386C23.3201 81.6815 24.4437 83.4827 24.4437 85.4722C24.4437 88.4147 26.829 90.8 29.7714 90.8H57.6386C61.8463 90.8 65.2695 87.3737 65.2695 83.165C65.2695 82.5935 65.5894 82.0714 66.091 81.7977C78.5182 75.0156 87.1208 62.5769 88.9095 48.3819C89.0759 47.0556 88.0418 45.8837 86.7052 45.8837H85.8541C84.2169 45.8837 82.9145 44.5499 82.6339 42.937C82.3283 41.1802 81.7603 39.513 80.9722 37.9765C78.1823 32.5377 76.394 24.4515 80.7985 20.2131L91.0578 10.3404C91.9394 9.49217 91.9677 8.0869 91.1165 7.20531C90.9148 6.99542 90.6737 6.82733 90.407 6.71064C90.1403 6.59394 89.8533 6.53093 89.5622 6.5252C89.2712 6.51947 88.9819 6.57114 88.7108 6.67726C88.4397 6.78337 88.1922 6.94185 87.9824 7.14364L66.3308 27.9824C66.0558 28.247 65.6855 28.3663 65.3039 28.3663C65.1394 28.3663 65.0362 28.2046 65.1198 28.063L79.0968 4.38263C79.2449 4.13178 79.3422 3.85421 79.383 3.56576C79.4239 3.27732 79.4075 2.98365 79.3348 2.70154C79.2622 2.41942 79.1347 2.15439 78.9596 1.92156C78.7844 1.68874 78.5652 1.49269 78.3143 1.34461ZM31.005 23.3852C39.2016 23.3852 46.6978 27.8402 50.6693 34.8866C50.9309 35.3507 50.8785 35.9222 50.587 36.3681C49.7634 37.6277 46.5537 37.6244 45.7314 36.3639C42.5919 31.5514 37.1666 28.3643 31.005 28.3643C22.1736 28.3643 14.8459 34.9118 13.6072 43.409C13.4091 44.7681 12.3127 45.8847 10.9392 45.8847C9.55845 45.8847 8.42595 44.7586 8.58224 43.3867C9.86264 32.1472 19.4279 23.3852 31.005 23.3852ZM31.005 37.7928C27.3751 37.7928 24.2931 40.1736 23.2332 43.4546C22.8126 44.7567 21.7377 45.8847 20.3694 45.8847C18.9865 45.8847 17.8432 44.7487 18.1124 43.3922C19.3087 37.3622 24.6323 32.8025 31.005 32.8025C37.3789 32.8025 42.707 37.3613 43.9024 43.3904C44.1717 44.7481 43.0271 45.8847 41.6429 45.8847C40.2724 45.8847 39.196 44.7544 38.7744 43.4504C37.7144 40.1716 34.6334 37.7928 31.005 37.7928ZM33.6129 43.299C34.7441 44.4106 33.4252 45.8858 31.8393 45.8858H30.1722C28.5859 45.8858 27.2674 44.4097 28.3995 43.2985C29.0956 42.6152 30.0316 42.2317 31.0071 42.23C31.982 42.2319 32.9175 42.6157 33.6129 43.299ZM50.9667 50.323C68.1668 50.323 80.4599 67.7994 65.8263 76.8382C64.5637 77.6181 63.2519 78.3308 61.8951 78.9706C61.1659 79.3145 60.3657 79.4749 59.5596 79.4749H55.8986C54.6731 79.4749 53.6795 80.4684 53.6795 81.694C53.6795 82.9196 54.6731 83.9131 55.8986 83.9131H58.6065C59.6919 83.9131 60.4623 85.0004 59.6113 85.674C59.0499 86.1184 58.3555 86.3609 57.6396 86.3627H30.1068C29.4303 86.3627 28.882 85.8144 28.882 85.1379C28.882 84.4615 29.4303 83.9131 30.1068 83.9131H34.9823C36.2079 83.9131 37.2014 82.9196 37.2014 81.694C37.2014 80.4684 36.2079 79.4749 34.9823 79.4749H30.3573C29.4195 79.4749 28.4878 79.2893 27.6415 78.8852C26.3497 78.2682 25.099 77.5851 23.8932 76.8406C9.25658 67.8034 21.5507 50.323 38.7525 50.323H50.9667ZM64.4708 45.8858C62.885 45.8858 61.5667 44.4105 62.6979 43.2993C63.3935 42.616 64.3289 42.2322 65.3039 42.23C66.2798 42.2309 67.2165 42.6141 67.9131 43.2975C69.046 44.4089 67.7267 45.8858 66.1395 45.8858H64.4708ZM65.3039 32.8036C71.6797 32.8036 77.0093 37.3613 78.2066 43.3895C78.4764 44.7481 77.331 45.8858 75.9458 45.8858C74.5747 45.8858 73.4977 44.755 73.0754 43.4505C72.0143 40.1722 68.9328 37.7938 65.3039 37.7938C61.6749 37.7938 58.5955 40.1735 57.5361 43.4531C57.1152 44.7564 56.0394 45.8858 54.6698 45.8858C53.286 45.8858 52.1419 44.749 52.4112 43.3916C53.6075 37.3624 58.9309 32.8036 65.3039 32.8036Z" fill="#FF9C06"/>
<path d="M64.3576 71.7833C64.7124 71.7833 65.0713 71.6993 65.4019 71.5204C68.1116 70.07 70.4894 68.0711 72.3841 65.6511C74.2787 63.2312 75.6486 60.4431 76.4065 57.4646C76.4791 57.1818 76.4952 56.8875 76.4538 56.5985C76.4124 56.3095 76.3144 56.0315 76.1653 55.7804C76.0163 55.5294 75.8191 55.3103 75.5852 55.1356C75.3512 54.9609 75.0851 54.8341 74.802 54.7625C74.519 54.691 74.2246 54.6759 73.9357 54.7184C73.6469 54.7608 73.3692 54.8599 73.1187 55.0098C72.8682 55.1598 72.6498 55.3578 72.476 55.5923C72.3022 55.8269 72.1764 56.0935 72.1058 56.3768C71.5007 58.7573 70.4064 60.9856 68.8926 62.9198C67.3787 64.854 65.4786 66.4516 63.3132 67.6109C62.8765 67.8433 62.5302 68.2151 62.3293 68.6671C62.1284 69.1192 62.0845 69.6254 62.2046 70.1053C62.3247 70.5851 62.6019 71.011 62.9921 71.3151C63.3822 71.6192 63.8629 71.784 64.3576 71.7833Z" fill="#FF9C06"/>
<path d="M58.9882 75.2834C60.441 75.2834 61.6188 74.1056 61.6188 72.6528C61.6188 71.2 60.441 70.0222 58.9882 70.0222C57.5353 70.0222 56.3576 71.2 56.3576 72.6528C56.3576 74.1056 57.5353 75.2834 58.9882 75.2834Z" fill="#FF9C06"/>
</svg>
